<svg xmlns="http://www.w3.org/2000/svg" viewBox="0 0 800 500" role="img" aria-labelledby="title desc"><title>Winkels</title><desc>Winkelpui, pakket en kassabon</desc><rect width="800" height="500" rx="36" fill="#f4efe6"/><circle cx="690" cy="90" r="70" fill="#f2b84b" opacity=".55"/><rect x="110" y="150" width="410" height="245" rx="18" fill="#fff" stroke="#123f38" stroke-width="10"/><path d="M90 150h450l-35-85H125z" fill="#f2b84b" stroke="#123f38" stroke-width="10"/><path d="M160 65v85m90-85v85m90-85v85m90-85v85" stroke="#123f38" stroke-width="8"/><rect x="165" y="220" width="120" height="175" fill="#dce9e4"/><rect x="335" y="210" width="125" height="95" fill="#9bd0c2"/><rect x="570" y="255" width="145" height="120" rx="14" fill="#c98f5b"/><path d="M570 300h145M642 255v120" stroke="#8b5e34" stroke-width="8"/><path d="M610 170h85v105h-85z" fill="#fff" stroke="#123f38" stroke-width="8"/><path d="M628 195h48m-48 22h48m-48 22h35" stroke="#1c7566" stroke-width="7"/></svg>