<svg xmlns="http://www.w3.org/2000/svg" viewBox="0 0 720 420" role="img" aria-labelledby="t d"><title id="t">Een technische vergadering</title><desc id="d">Drie collega's bespreken een datapijplijn bij een scherm.</desc><rect width="720" height="420" rx="32" fill="#f3efe8"/><rect x="70" y="44" width="310" height="184" rx="14" fill="#203f4a"/><g stroke="#8fd1bd" stroke-width="8" stroke-linecap="round"><path d="M115 173l59-54 53 29 80-66"/><path d="M115 193h214" opacity=".35"/></g><g fill="#f4c46b"><circle cx="115" cy="173" r="10"/><circle cx="174" cy="119" r="10"/><circle cx="227" cy="148" r="10"/><circle cx="307" cy="82" r="10"/></g><rect x="90" y="316" width="545" height="30" rx="15" fill="#a46a4f"/><ellipse cx="360" cy="338" rx="210" ry="46" fill="#bd7c5d"/><g><circle cx="158" cy="268" r="37" fill="#d89c78"/><path d="M122 265c4-35 57-52 72-10-20-2-36-10-49-25-3 14-11 25-23 35z" fill="#44372f"/><path d="M102 350c6-58 25-91 56-91s50 33 56 91z" fill="#4c86a8"/></g><g><circle cx="358" cy="250" r="40" fill="#c98563"/><path d="M319 246c4-37 59-54 78-12-22-3-39-11-54-27-3 15-11 27-24 39z" fill="#342d2a"/><path d="M297 344c7-61 28-96 61-96s54 35 61 96z" fill="#d96354"/></g><g><circle cx="558" cy="269" r="37" fill="#e0aa83"/><path d="M523 265c5-33 50-47 70-13-17 2-34-3-49-15-4 12-11 21-21 28z" fill="#8b674d"/><path d="M502 350c6-58 25-91 56-91s50 33 56 91z" fill="#6f8b4c"/></g><path d="M212 282c36-31 73-39 111-24M397 258c40-19 77-10 112 22" fill="none" stroke="#173b36" stroke-width="5" stroke-dasharray="8 11"/></svg>
