<svg xmlns="http://www.w3.org/2000/svg" viewBox="0 0 720 420" role="img" aria-labelledby="t d"><title id="t">Gesprek bij de school</title><desc id="d">Een ouder spreekt met een leerkracht voor een schoolbord.</desc><rect width="720" height="420" rx="32" fill="#eef4ee"/><rect x="62" y="44" width="365" height="207" rx="14" fill="#315e53"/><path d="M99 98h181M99 139h247M99 180h148" stroke="#edf4ef" stroke-width="8" stroke-linecap="round" opacity=".8"/><circle cx="510" cy="137" r="48" fill="#d89c78"/><path d="M461 132c5-47 77-66 97-10-29-5-51-16-69-35-4 19-14 33-28 45z" fill="#3e332e"/><path d="M442 343c9-97 34-153 68-153 41 0 70 58 78 153z" fill="#d96354"/><circle cx="231" cy="301" r="43" fill="#c98563"/><path d="M189 295c5-40 62-57 83-12-23-2-42-11-57-28-4 17-13 29-26 40z" fill="#604133"/><path d="M168 397c7-68 31-105 63-105s56 37 63 105z" fill="#4c86a8"/><path d="M300 314c56-31 102-30 142 4" fill="none" stroke="#173b36" stroke-width="5" stroke-linecap="round" stroke-dasharray="8 12"/><path d="M385 304l57 14-45 36" fill="none" stroke="#173b36" stroke-width="5" stroke-linecap="round" stroke-linejoin="round"/></svg>
