<svg xmlns="http://www.w3.org/2000/svg" viewBox="0 0 720 420" role="img" aria-labelledby="t d"><title id="t">Op het station</title><desc id="d">Een reiziger vraagt informatie bij een Nederlands station.</desc><rect width="720" height="420" rx="32" fill="#e9f2f5"/><rect x="60" y="48" width="600" height="70" rx="15" fill="#173b36"/><text x="360" y="93" text-anchor="middle" font-family="Arial,sans-serif" font-weight="700" font-size="30" fill="#fff">UTRECHT · SPOOR 5</text><path d="M57 339h606M82 373h560" stroke="#69777a" stroke-width="9" stroke-linecap="round"/><path d="M111 358l32-24M188 358l32-24M265 358l32-24M342 358l32-24M419 358l32-24M496 358l32-24M573 358l32-24" stroke="#69777a" stroke-width="5"/><path d="M327 184h286c26 0 47 21 47 47v91H327z" fill="#f4c900" stroke="#173b36" stroke-width="6"/><path d="M327 264h333v58H327z" fill="#1b4f8a"/><g fill="#d9eef4" stroke="#173b36" stroke-width="4"><rect x="367" y="205" width="68" height="48" rx="6"/><rect x="453" y="205" width="68" height="48" rx="6"/><rect x="539" y="205" width="68" height="48" rx="6"/></g><circle cx="143" cy="211" r="42" fill="#d89c78"/><path d="M101 207c6-42 65-59 83-10-24-4-43-13-58-30-3 17-12 29-25 40z" fill="#42342d"/><path d="M88 340c7-81 28-126 55-126s50 45 58 126z" fill="#e47d4e"/><path d="M183 241l87 22" stroke="#d89c78" stroke-width="17" stroke-linecap="round"/><path d="M254 246l25 20-31 10" fill="none" stroke="#173b36" stroke-width="5" stroke-linecap="round"/></svg>
