<svg xmlns="http://www.w3.org/2000/svg" viewBox="0 0 800 520" role="img" aria-labelledby="t d"><title id="t">Gezondheid</title><desc id="d">Een huisarts spreekt met een patiënt</desc><rect width="800" height="520" fill="#eaf3f5"/><rect x="90" y="72" width="620" height="370" rx="28" fill="#fff"/><path d="M344 104h112v28h28v112h-28v28H344v-28h-28V132h28z" fill="#df7856"/><circle cx="270" cy="288" r="54" fill="#d79a71"/><path d="M192 430c6-95 31-143 78-143s72 48 78 143" fill="#245f52"/><circle cx="544" cy="288" r="54" fill="#8f634c"/><path d="M466 430c7-95 32-143 78-143s72 48 78 143" fill="#d8e4ea"/><path d="M506 322c0 40 76 40 76 0" fill="none" stroke="#173f38" stroke-width="9"/><circle cx="506" cy="322" r="12" fill="#173f38"/><circle cx="582" cy="322" r="12" fill="#173f38"/><path d="M544 342v52" stroke="#173f38" stroke-width="8"/><circle cx="544" cy="408" r="18" fill="none" stroke="#173f38" stroke-width="8"/><rect x="158" y="430" width="484" height="20" rx="10" fill="#b7cfd5"/></svg>
